<?xml version="1.0" encoding="utf-8"?>
<!-- Generator: Adobe Illustrator 28.1.0, SVG Export Plug-In . SVG Version: 6.00 Build 0)  -->
<svg version="1.1" id="Layer_1" xmlns="http://www.w3.org/2000/svg" xmlns:xlink="http://www.w3.org/1999/xlink" x="0px" y="0px"
	 viewBox="0 0 1366 768" style="enable-background:new 0 0 1366 768;" xml:space="preserve">
<style type="text/css">
	.st0{fill:#1B1464;}
</style>
<g id="S1iwIh_00000055669468370796986330000010200419920992418703_">
	<g>
		<path class="st0" d="M33.45,638.37c51.13,5.64,103.17,5.42,155.09,5.93c15.53,0.15,28.28,3.93,40.29,8
			c13.87,4.7,20.19,4.84,33.67,0.13c25.12-8.78,50.71-16.76,83.99-14.88c20.32,1.15,40.81-1.37,61.49-0.08
			c24.2,1.5,41.8,8.4,57.71,16.36c16.87,8.44,16.07,8.95,38.58,4.88c7.94-1.44,15.86-2.39,24.3-2.12c3.51,0.11,7.99-0.27,8.66,2.15
			c0.68,2.46-3.41,3.59-7.32,3.93c-8.5,0.75-17.17,1.04-25.44,2.42c-2.39,0.4-6.28,0.41-6.98,1.17
			c-7.89,8.52-28.24,8.27-39.84,14.25c-5.56,2.87-6.31,4.96-0.96,7.65c12.63,6.34,21.3,13.75,26.91,22.29
			c2.62,3.99,4.14,7.94,5.23,12.03c0.97,3.65,3.98,4.87,11.79,3.11c9.82-2.21,18.69-5.47,29.46-6.69c3.92-0.45,7.49-0.79,11.62-0.27
			c11.02,1.39,18.06-0.92,20.65-6.36c7.56-15.88,26.99-27.41,53.08-36.77c15.56-5.58,32.92-9.33,49.77-13.62
			c7.47-1.9,15.49-1.84,23.24-0.59c10.66,1.71,21.31,3.29,32.42,4.17c7.71,0.61,11.29,3.01,9.13,6.99
			c-0.96,1.78-2.55,3.54-6.38,4.06c-4.16,0.57-5.4-1.33-7.05-2.66c-1.79-1.44-4.11-2.56-7.47-2.9c-22.92-2.27-44.97-3.26-66.61,3.6
			c-11.38,3.61-23.5,6.68-33.84,11.06c-18.42,7.81-28.78,18.18-35.68,29.43c-8.37,13.66-11.85,27.7-10.84,41.99c-4.33,0-8.67,0-13,0
			c-0.39-3.05-0.6-6.15,1.89-8.99c4.43-5.07,0.62-10.24,1.09-15.35c0.21-2.27-3.36-4.1-8.36-4.12c-17.55-0.08-33.11,2.95-46.96,8.14
			c-9.09,3.4-7.01,8.67-7.97,13.36c-0.47,2.31-0.25,4.65-0.34,6.97c-4.33,0-8.67,0-13,0c2.36-15.53,5.13-30.85-7.46-46.04
			c-7.26-8.75-15.19-16.5-31.73-21.44c-11.23-3.35-24.5-3.91-36.56-6.22c-6.46-1.24-9.91,1.74-9.24,4.84
			c1.56,7.29,1.62,14.91,6.23,21.73c5.57,8.24,0.92,16.03-1.81,23.47c-2.89,7.86-4.64,15.86-8.26,23.67c-5.06,0-10.11,0-15.17,0
			c0.36-1.96-0.1-4.06,1.21-5.85c13.57-18.44,10.25-37.4,3.81-55.91c-6.49-18.66-31.64-26.9-67.29-22.2
			c-24.52,3.23-49.28,6.43-70.7,13.83c-12.33,4.26-22.09,8.93-21.38,17.27c0.52,6.09-0.28,12.21-0.82,18.31
			c-0.35,4.01-0.43,8.21,3.2,11.64c7.75,7.32,7.35,16.13,17.63,22.9c-6.5,0-13,0-19.5,0c1.08-3.14-0.67-6.06-2.85-8.93
			c-7.91-10.37-16.31-20.66-14.32-32.14c0.44-2.53-1.57-4.93-3.23-7.31c-2.55-3.67-1.29-7.07,3.43-10.15
			c5.43-3.54,11.09-7.01,16.28-10.64c5.59-3.91,3.35-7.09-5.96-6.78c-26.02,0.87-53.84-3.08-77.16,6.02
			c-13.62,5.31-30.51,9.57-29.14,20.31c0.35,2.78-2.64,4.17-8.28,4.62c-6.02,0.48-12.8,1.01-16.58,3.48
			c-8.87,5.8-15.97,12.3-25.44,17.81c-7.25,4.22-7.84,11.12-20.91,12.93c0-3.95,0-7.91,0-11.86c3.92,0.46,7.16,0,9.34-1.77
			c10.71-8.66,22.51-16.9,35.68-24.72c9.01-5.34,5.45-9.64-8.38-10.47c-12.1-0.73-24.42-0.57-36.64-0.8c0-3.95,0-7.91,0-11.86
			c10.02,0.46,19,3.21,29.19,3.29c9.98,0.08,13.99-2.68,10.18-7.18c-2.22-2.62-4.89-5.14-7.31-7.72c-1.7-1.81-4.45-2.66-8.51-2.61
			c-7.85,0.1-15.7,0.14-23.55,0.2C33.45,659.94,33.45,649.16,33.45,638.37z M343.26,643.55c-15.59-0.31-29.82,0.57-44.3,4.8
			c-19.78,5.77-39.63,11.34-56.32,19.19c-3.55,1.67-10.92,3.9-6.79,7.02c4.27,3.23,11.67,1.79,17.88,0.79
			c2.02-0.33,4.12-0.81,5.68-1.5c4.84-2.14,10.56-2.94,16.8-3.28c6.85-0.38,13-1.98,19.46-2.95c22.3-3.34,45.47-5.91,65.56,2.49
			c11.25,4.7,22.65,6.75,37.09,6.04c7.48-0.37,14.74,1.11,21.73,2.78c9.68,2.32,19.39,4.06,27.57-1.81c3.16-2.27,8.34-3.9,12.9-5.62
			c8.79-3.33,9.65-7.13,2.13-11.07c-2.23-1.16-4.31-2.43-6.85-3.4c-15.23-5.83-29.52-12.16-50-13.69
			C384.75,641.75,364.08,643.9,343.26,643.55z M147.36,650.03c0-0.37,0-0.75,0-1.12c-12.96,0-25.93-0.06-38.89,0.02
			c-11.09,0.06-13.42,1.61-11.22,6.86c1.1,2.63,2.08,5.28,2.62,7.95c1.23,6.08,0.29,6.63-12.37,6.51c-5.17-0.05-7.97,1.66-5.14,3.07
			c7.97,3.97,6.15,8.88,7.6,13.53c0.84,2.7,4.19,4.52,9.68,5.19c5.1,0.62,7.34-1.09,10.58-2.68c14.99-7.36,31.38-13.53,53.79-14.06
			c12.58-0.3,25.11-1.08,37.68-1.55c7.04-0.26,13.34-1.54,19.25-3.28c12.93-3.81,14.32-9.55,1.8-13.21
			c-10.89-3.18-21.91-7.04-35.43-7.19C174,649.91,160.67,650.03,147.36,650.03z M78.41,657.28c-0.52-1.58-2.24-2.91-5.84-3.13
			c-3.9-0.23-6,1.01-6.1,2.83c-0.11,1.9,2.35,2.91,6.05,2.94C75.71,659.94,77.83,659.1,78.41,657.28z"/>
		<path class="st0" d="M1235.95,757.01c0.29-6.81,0.47-13.63,0.92-20.44c0.24-3.56-2.57-5.59-9.7-6.67
			c-13.6-2.07-21.84-7.84-32-12.26c-1.55-0.67-2.37-2.03-0.33-2.89c2.64-1.11,5.18-0.2,6.21,0.92c4.63,5.04,14.04,4.49,22.37,4.68
			c9.43,0.22,12.98-3.1,8.1-7.1c-6.32-5.19-12.72-10.35-19.31-15.45c-6.12-4.74-15.21-5.29-21.79-1.06
			c-5.36,3.45-10.7,3.55-16.16,0.67c-5.82-3.08-11.75-3.36-19.47-1.99c-9.26,1.65-19.3,1.59-28.97,1.41
			c-27.42-0.5-46.54,6.51-61.99,16.66c-11.57,7.6-19.81,16.02-23.64,25.57c-2.43,6.06-11.13,11.33-10.1,17.95c-4.33,0-8.67,0-13,0
			c7.16-19.13,16.4-37.84,45.42-52.22c12.21-6.05,24.98-11.82,37.51-17.71c1.31-0.61,3.5-1.07,3.92-1.79
			c5.29-9.15,21.89-10.89,36.28-14.51c10.78-2.71,21.77-5.33,32.18-8.42c11.3-3.36,37.59-2.84,48.24,0.96
			c25.9,9.22,41.64,22.53,57.67,35.66c5.75,4.7,11.2,9.55,14,15.07c2.36,4.65,9.91,5.86,18.84,4.79c7.34-0.88,14.46-2.37,22.26-1.73
			c0,2.52,0,5.03,0,7.55c-1.8,0.02-3.6,0.01-5.39,0.06c-20.35,0.55-27.25,4.35-26.96,14.58c0.17,5.91-0.08,11.81-0.15,17.72
			C1279.28,757.01,1257.61,757.01,1235.95,757.01z M1227.34,678.56c-2.02-2.75-2.12-5.35-6.51-7.08
			c-17.85-7.04-28.76-7.53-48.98-1.9c-3.8,1.06-11.36,1.17-10.1,3.86c1.34,2.86,8.73,2.53,13.99,2.76c2.81,0.12,5.84-0.01,8.53-0.42
			c10.23-1.57,19.9-0.44,29.52,1.23C1217.81,677.7,1221.64,678.75,1227.34,678.56z M1236.53,705.33c0.05,4.15,6.55,6.19,11.67,8.61
			c2.49,1.18,5.83,1.62,8.84,0.36c3.35-1.4,3.28-3.35,0.94-4.85c-3.73-2.39-8.14-4.52-12.48-6.66c-1.76-0.87-4.09-1.67-6.77-0.86
			C1236.16,702.71,1236.6,704.08,1236.53,705.33z M1133.89,686.33c-0.16-2.3-2.85-2.99-6.49-2.73c-6.61,0.48-11.54,2.26-12.29,5.67
			c-0.49,2.24,3.49,2.93,7.36,2.85C1130,691.97,1132.54,689.31,1133.89,686.33z M1163.92,682.03c-2.89,0.3-7.21,0.27-7.72,2.54
			c-0.5,2.25,2.96,3.13,6.96,3.06c4.09-0.06,8.39-0.66,8.48-3.11C1171.72,682.5,1167.82,682.27,1163.92,682.03z"/>
		<path class="st0" d="M947.78,757.01c0.49-6.08,1.41-12.16,1.36-18.24c-0.05-6.51-3.78-12.77-7.02-19.01
			c-3.53-6.83-16.23-10.62-30.13-10.16c-17.26,0.57-34.3-0.16-50.17-4.27c-8.9-2.3-19.02-1.86-28.61-2.19
			c-12.82-0.45-22.81-2.62-29.48-8.35c-4.84-4.15-10.07-2.64-15.59,0.02c-35.48,17.11-49.32,37.96-44.02,62.2
			c-5.06,0-10.11,0-15.17,0c1.19-10.13-1.11-20.18,5.55-30.36c6.55-10,17.74-18.23,29.47-26.51c9.75-6.89,22.11-12.65,34.37-18.4
			c4.77-2.24,5.94-4.86,2.33-7.19c-4.76-3.06-10.15-6.25-16.7-8.2c-37.29-11.13-77.63-15.3-120.98-12.6
			c-15.36,0.96-30.95,0.96-46.44,1.39c-1.79,0.05-3.64,0.09-5.39-0.06c-3.49-0.3-8.19-0.38-8.48-2.55
			c-0.35-2.65,4.87-2.95,8.58-3.06c15.48-0.48,30.98-0.81,46.49-1.03c13.34-0.19,26.51-0.72,39.78-1.77
			c15.49-1.24,31.28,1.26,45.38,3.7c19.32,3.36,38.74,7.45,55.27,14.01c5.79,2.3,9.99,5.18,14.02,8.13
			c4.42,3.24,9.51,3.46,15.72,1.56c2.46-0.75,4.77-1.9,7.43-2.16c38.95-3.86,77.85-10.82,117.38-1.41
			c22.36,5.32,41.2,12.68,52.86,23.89c3.59,3.45,4.02,7.33,3.92,11.06c-0.33,11.49-1.35,22.97-2.05,34.46
			c-0.2,3.26-3.06,5.83-7.75,8.02c-2.32,1.08-4.26,2.88-7.98,2.05c-4.23-0.95-3.44-3.05-2.27-4.73c4.42-6.36,5.09-13.03,6.67-19.61
			c0.86-3.56,1.01-7.16,1.58-10.74c1.92-12.21-6.83-22.02-26.15-29.65c-20.43-8.07-43.28-13.03-69.5-12.15
			c-18.99,0.63-38,2.18-56.6,4.22c-8.81,0.96-17.18,3.66-24.86,6.23c-7.65,2.56-6.69,6.32,0.5,9.22c6.99,2.82,14.62,4.46,23.62,4.69
			c7.29,0.19,13.81,1.63,20.54,3.04c19.06,4,38.79,5.36,58.82,1.62c12.12-2.26,14.71-1.11,20.48,3.45
			c20.26,16.03,21.07,33.54,18.4,51.47C957.89,757.01,952.83,757.01,947.78,757.01z"/>
		<path class="st0" d="M33.45,592c25.39,3.12,51.72,2.53,77.19,4.64c16.4,1.36,33.07,3.24,49.18,5.42
			c21.23,2.88,42.55,3.65,64.15,4.26c11.52,0.33,22.95,0.69,33.99,2.81c9.61,1.85,20.23,2.15,29.93,0.9
			c26.23-3.37,53.41-4.08,79.55-7.83c16.56-2.38,33.63-3,50.1,2.05c10.72,3.29,23.91,2.01,36.13,1.98
			c10.04-0.02,19.97-0.72,28.01,3.75c2.67,1.48,8.69,1.42,13.1,2.19c3.04,0.53,6.68,1.11,5.69,3.24c-0.83,1.8-3.99,2.48-7.47,2.54
			c-6.31,0.1-12.38-0.57-17.19-2.66c-7.1-3.09-15.35-3.58-24.27-3.47c-15.85,0.21-31.33,0.21-46.05-4.09
			c-9.48-2.78-21.08-2-31.78-0.61c-7.34,0.95-7.54,2.91-2.27,5.3c4.71,2.13,10.37,3.28,16.62,3.58c10.41,0.49,20.85,0.78,31.25,1.3
			c3.47,0.17,8.05,0.39,7.86,2.79c-0.2,2.57-4.95,3.15-8.82,2.87c-18.15-1.35-36.92-0.52-54.51-3.72c-8.8-1.6-17.7-1.84-26.62-0.77
			c-13.38,1.61-26.93,2.68-40.61,3.15c-19.87,0.67-39.01,3.16-58.32,5.26c-1.41,0.15-2.84,0.38-4.25,0.37
			c-4.2-0.03-9.92,0.58-10.77-2.18c-0.75-2.44,4.88-2.72,8.45-3.33c3.04-0.52,6.47-0.48,9.49-1.01c4.67-0.82,8.51-2.36,8.27-5.05
			c-0.28-3.21-5.66-3.39-10.36-3.46c-20.91-0.31-42.14,0.34-62.52-2.13c-22.38-2.72-45.27-3.99-67.52-7.2
			c-19.12-2.76-39.31-2.19-58.76,0.47c-5.59,0.77-10.98,1.74-16.88,1.59C33.45,600.62,33.45,596.31,33.45,592z"/>
		<path class="st0" d="M1333.45,662.1c-33.72-1.78-67.54-2.6-101.45-2.72c-3.87-0.01-8.47,0.13-10.21-2.16
			c-1.93-2.53-0.49-4.9,2.72-7.07c8.56-5.79,4.52-12.72-7.07-16.94c-11.97-4.37-25.43-5.01-38.94-6.77
			c-29.09-3.78-57.51-1.35-85.14,1.86c-25.14,2.92-46.73,10.14-58.66,22.47c-5.26,5.44,3.98,5.69,12.12,6.62
			c-5.72,3.12-12.12,4.48-19.02,4.64c-7.23,0.17-11.62-3.69-8.93-8.03c5.13-8.27,15.6-14.97,28.64-20.37
			c18.28-7.58,39.67-10.88,63.58-12.96c31.37-2.73,60.88,1.08,91.09,2.34c16.6,0.69,30.63,8.67,33.6,17.06
			c1.01,2.86,4.7,3.88,9.5,4.39c8.4,0.89,17.7,1.33,22.7-2.64c5.45-4.32,12.56-4.72,21.21-4.63c14.75,0.15,29.51,0.98,44.27,0.12
			c0,2.88,0,5.75,0,8.63c-21.71-2.58-41.83,1.88-62.58,3.53c-2.97,0.24-7.54,0.3-7.41,2.35c0.13,2,4.63,2.08,7.66,2.17
			c20.77,0.63,41.56,1.12,62.34,1.66C1333.45,657.79,1333.45,659.94,1333.45,662.1z"/>
		<path class="st0" d="M33.45,612.49c8.1,0.26,16.34-0.44,23.24-2.11c16.84-4.06,32.35-1.71,47,1.99
			c12.06,3.05,24.58,3.85,37.44,4.59c2.51,0.15,5.06,0.19,7.51,0.46c5.11,0.56,12.51,0.51,11.24,4.28
			c-1.37,4.06-8.33,2.35-13.25,1.82c-19.27-2.09-38.9-2.69-58.04-5.92c-17.81-3.01-37.16-0.81-55.15,2.45
			C33.45,617.52,33.45,615,33.45,612.49z"/>
		<path class="st0" d="M764.56,487.48c3.54,10.9-5.09,20.01-19.34,28.14c-8.12,4.64-15.08,9.64-19.82,15.33
			c-5.91,7.1-19.76,9.68-31.19,13.59c-4.54,1.55-8.56,3.06-11.37,5.54c-6.04,5.33-16.4,8.49-26.07,11.9
			c-7.19,2.54-12.6,5.72-17.66,9.3c-12.39,8.78-25.69,17.24-38.41,25.91c-6.97,4.75-11.24,10.27-11.67,16.01
			c-1.45,19.15-9.05,37.65-18.98,56.13c-6.02,11.2-9.02,22.87-14.32,34.25c-2.09,4.49-7.39,6.78-14.35,8.76
			c-4.93,1.4-7.72-0.06-5.89-2.23c7.97-9.44,8.14-19.68,12.19-29.48c5.51-13.34,14.8-26.28,17.53-39.91
			c1.85-9.27,5.79-18.36,6.69-27.76c0.87-9.09-4.9-16.4-14.02-23.64c-1.69-1.34-3.69-2.87-3.86-4.36
			c-0.75-6.58-7.72-11.1-18.57-14.23c-12.77-3.69-20.87-9.82-31.69-14.52c-1.79-0.78-3.44-2.02-3.82-3.16
			c-1.69-5.08-7.26-9.2-11.79-13.68c-17.54-17.35-15.35-35.37-4.95-53.46c3.94-6.85,5.69-14.05,14.65-20.08
			c3.51-2.36,1.2-5.23-1.83-7.61c-6.05-4.75-6.79-9.99-7.41-15.48c-1.56-13.86,5.51-27.54,2.76-41.4
			c-2.91-14.64-1.17-29.48-7.1-43.98c-2.3-5.62-5.63-11.36-20.05-12.41c-3.12-0.23-5.69-1.24-5.89-2.78
			c-1.33-9.97-18.85-12.02-32.04-15.73c-12.44-3.5-25.29-7.16-38.4-9.56c-18.09-3.31-34.37-8.07-51.39-12.25
			c-19.94-4.9-39.67-10.02-59.76-14.76c-17.23-4.06-34.64-7.96-52.36-11.46c-9.14-1.8-15.54-5.16-22.74-8.07
			c-5.08-2.06-3.41-4.85-1.13-7.44c8.47-9.58,13.63-19.66,16.97-29.93c2.07-6.36,8-11.97,13.07-17.61
			c7.7-8.57,9.32-18.08,18.45-26.38c5.66-5.14,10.22-10.5,12.58-16.47c2.57-6.52,19.53-9.37,31.61-6.36
			c22.87,5.69,46.5,10.38,71.37,13.57c16.71,2.14,33.85,4.04,49.88,6.71c14.67,2.44,31.32,2.7,44.37,7.6
			c0.84,0.31,1.99,0.63,2.97,0.61c21.6-0.46,39.71,6.02,60.31,7.48c12.37,0.88,23.75,3.34,34.36,6.28
			c8.15,2.25,16.24,3.43,25.27,4.21c15.57,1.34,29.48,5.42,44.91,7.34c20.13,2.5,39.63,6.31,59.29,9.53
			c25.06,4.1,51.3,6.96,74.94,13.36c10.01,2.71,22.02,3.54,32.36,6.01c25.63,6.13,52.37,11.15,79.41,14.88
			c28.74,3.97,55.96,10.16,85.34,13.19c16.68,1.72,32.79,5.13,48.58,8.66c12.37,2.77,25.46,4.93,38.36,6.89
			c22.92,3.48,44.7,7.92,65.37,13.87c12.24,3.52,26.35,5.04,39.49,6.92c17.23,2.46,34.2,5.51,51.73,7.6
			c13.16,1.56,25.55,4.71,38.37,7.03c5.06,0.92,10.26,1.72,15.53,2.24c13.67,1.35,19.89,6.24,16.35,12.98
			c-3.34,6.36-10.86,11.76-17.21,17.32c-16.44,14.37-28.48,29.69-41.89,44.72c-3.78,4.24-8.39,8.35-13.41,12.26
			c-20.47,15.93-35.86,33.04-48.04,50.87c-3.64,5.33-9.06,10.18-14.01,15.15c-4.41,4.42-16.62,5.67-26.6,2.63
			c-17.85-5.44-37.81-8.6-56.41-13.25c-18.03-4.51-34.92-9.99-53.07-14.31c-20.4-4.86-41.35-9.19-61.26-14.49
			c-16.79-4.47-34.12-8.36-50.96-12.75c-11.71-3.05-23.95-5.53-35.6-8.71c-12.05-3.29-23.44-0.78-31.26,4.94
			c-13.05,9.53-19.61,20.71-31.8,30.47c-9.32,7.46-18.5,15-23.68,23.52C765.4,483.34,764.12,485.2,764.56,487.48z M314.23,195.11
			c-12.18-0.46-18.48,2.09-21.2,9.23c-3.01,7.91-10.15,15.17-14.58,22.89c-5.23,9.12-10.27,18.53-19.68,27.02
			c-2.46,2.22-2.5,4.57,2.96,6c4.86,1.27,10.56,2.31,6.75,5.96c-3.65,3.5-13.01,5.28-19.38,3.77c-19.62-4.64-20.47-5.85-11.01-15.4
			c0.64-0.64,0.88-1.39,1.6-2c8.15-6.91,9.74-15.01,15.85-22.18c6.2-7.26,9.16-14.96,15.25-22.25c7.15-8.56,10.65-17.84,23.88-24.95
			c2.85-1.53,4.51-3.45,2.06-5.42c-2.61-2.09-7.07-2.37-11.55-1.94c-5.78,0.56-10.3,2.23-11.35,5.13
			c-2.85,7.9-13.22,14.23-17.71,21.84c-2.72,4.61-5.05,9.37-8.83,13.83c-9.56,11.26-17.84,22.69-20.85,34.91
			c-0.63,2.54-2.08,4.8-4.67,7.06c-6.17,5.38-2.4,9.81,9.37,11.83c4.41,0.75,10.19,0.33,13.15,2.17c8.24,5.14,21.13,6.25,31.85,8.58
			c21.06,4.56,40.63,10.59,61.82,14.85c19.75,3.97,37.31,9.97,57.07,14.03c12.14,2.49,25.53,3.75,36.64,7.46
			c9.7,3.24,18.73,4.42,31.08,2.35c27.3-4.57,43.66,0.19,53.65,13.93c1.85,2.54,4.83,4.97,9.67,6.34
			c14.04,3.97,27.56,8.86,42.64,11.35c26.4,4.36,46.79,13.92,72.59,18.84c24.91,4.75,47.03,12.97,74.24,15.14
			c5.64,0.45,11.58,1.15,16.47,2.54c15.41,4.37,31.87,7.37,48.44,10.38c11.5,2.09,20.3,2.01,28.59-3.23
			c8.14-5.15,13.11-5.07,23.82-1.08c12.59,4.7,22.71,10.45,29.45,17.59c2.17,2.3,4.4,4.76,9.53,5.63
			c16.18,2.74,29.43,8.23,44.97,11.65c8.44,1.86,17.36,3.47,25.31,5.79c17.41,5.08,35.39,10.66,54.27,12.76
			c29.13,3.24,48.1,14.77,75.31,19.4c11.17,1.9,22.54,5.34,34.01,7.82c8.97,1.93,16.51,1.17,23.34-3.42
			c7.65-5.14,6.78-11.3,11.69-16.61c10.74-11.62,20.52-23.55,33.33-34.6c15.29-13.19,27.01-27.2,41.22-40.61
			c2.68-2.53,6.98-4.8,8.36-7.47c3.86-7.44,11.82-13.72,20.32-19.92c10.02-7.31,6.6-12.42-10.15-15.22
			c-13.29-2.22-26.35-4.84-39.35-7.35c-35.15-6.8-72.08-11.09-106.11-19.54c-21.17-5.26-43.83-9.06-66.05-13.22
			c-24.15-4.52-48.11-9.56-72.97-12.84c-42.48-5.61-83.74-12.9-124.92-20.38c-24.89-4.52-49.44-9.5-74.12-14.28
			c-13.6-2.64-28.23-3.38-41.19-6.17c-30.39-6.53-62.19-10.78-93.41-15.97c-40.89-6.79-81.84-13.52-122.46-20.69
			c-15.43-2.72-32.06-3-47.02-6.09c-31.07-6.43-64.49-8.77-96.14-14.19c-8.51-1.46-16.6-3.45-25.25-4.63
			c-3.24-0.44-7.99-1.15-9.55,0.99c-1.25,1.72,3.37,1.92,5.61,2.65c5.94,1.93,8,4.82,5.99,7.95
			C325.08,195.93,319.57,195.46,314.23,195.11z M613.08,417.37c-2.09,0.07-7.19,0.04-12.11,0.49c-4.88,0.45-8.89,1.44-6.87,4.77
			c3.15,5.2-16.33,16.43-26.11,14.34c-14.68-3.14-18.23,2.27-24.53,6c-7.25,4.29-10.52,9.81-16.92,14.3
			c-20.62,14.47-27.27,31.38-34.99,48.12c-1.39,3,0.29,6.04,1.53,9.05c3.75,9.09,7.84,17.98,14.93,26.75
			c7.84,9.71,37.87,24.28,58.86,26.2c29.69,2.71,51.86-5.39,72.23-13.45c22.42-8.87,39.43-20.72,57.39-31.96
			c20.64-12.93,35.34-27.37,49.14-42.1c9.46-10.1,4.63-19.89-7.03-29.14c-12.9-10.23-25.52-20.22-50.68-24.37
			c-10.77-1.78-21.33-3.12-32.53-3.47c-4.29-0.13-9.37,0.25-12.35-1.44C635.56,417.21,625.68,417.67,613.08,417.37z M507.79,437.62
			c0.05,3.95-0.53,6.67,1.29,9.28c0.85,1.2,2.31,2.29,5.2,2.45c3.06,0.16,4.84-0.87,5.56-2.09c2.42-4.06,7.94-7.25,12.26-10.73
			c22.88-18.43,57.44-31.08,104.37-26.02c5.28,0.57,10.8,0.61,16.03,1.26c25.19,3.13,50.12,6.58,71.14,14.76
			c17.09,6.64,22.35,17.35,35.52,25.39c6.67,4.07,7.91,4.86,14.51,0.6c5-3.23,8.82-6.93,12.9-10.5
			c8.58-7.48,16.01-15.22,20.39-23.61c1.27-2.43,0.63-4.71-3.74-6.29c-6.72-2.43-13.48-4.86-22.24-5.16
			c-5.8-0.19-11.52-0.64-16.72-2.01c-29.36-7.7-60.94-12.75-91.8-18.56c-23.66-4.45-45.64-10.23-67.72-16.15
			c-9.18-2.46-17.32-5.69-27.09-7.77c-18.11-3.86-35.77-8.29-53.23-12.85c-11.81-3.08-18.95-1.38-18.67,5.4
			c0.28,6.63,1.75,13.24,2.54,19.86C510.83,396.21,511.68,417.55,507.79,437.62z"/>
		<path class="st0" d="M1009.71,536.66c-0.88,11.49-3,22.91-4.4,34.35c-1.02,8.34-5.42,17.58,6.01,25.54
			c2.84,1.98,1.35,4.38-1.01,6.14c-13.51,10.12-11.09,21.75-11.92,32.88c-0.9,12-4.1,23.98-2.58,36.03c0.3,2.35-1.26,4.59-7.04,4.32
			c-5.97-0.29-5.62-2.63-5.02-4.94c4.6-17.46,4.04-35.01,3.87-52.57c-0.09-8.62-2.23-16.71-10.82-24.31
			c-3.43-3.03-5.62-3.69-12.18-1.32c-14.79,5.35-31.14,8.85-50.13,5.75c-17.94-2.93-33,2.03-34.6,11.32
			c-0.91,5.28,0.45,10.28,4.14,15.31c7.22,9.85,3.42,20.28,5.24,30.42c0.41,2.32-2.8,4.13-8.25,3.94c-5.53-0.19-9.79-1.45-10.73-4.4
			c-1.25-3.96-0.31-7.9,1.63-11.75c2.25-4.47,2.31-8.76-0.92-13.21c-3.2-4.41-3.55-9.13-3.12-13.84c0.52-5.75,0.76-11.5-2.94-17.08
			c-0.66-1-1.09-2.15-0.81-3.18c5.92-21.3-2.42-42.23-6.52-63.26c-0.67-3.45-2.04-6.91,4.46-9.41c6.57-2.52,11.81-0.61,17.55,1.22
			c6.02,1.92,12.49,0.58,16.96-1.47c6.43-2.95,13.85-3.25,21.77-3.9c17.78-1.48,35.43-2.41,49.49-9.92
			c7.44-3.98,20.7-5.6,31.92-7.36c8.16-1.28,10.54,2.55,10.73,5.64c0.34,5.73-0.54,11.48-0.76,17.22
			C1009.59,528.77,1009.71,532.72,1009.71,536.66z M876.24,562.31c0.31,0,0.62,0,0.93,0c0,7.17-0.12,14.35,0.06,21.52
			c0.08,3.22,2.58,5.88,10.17,5.49c16.92-0.86,33.85-0.42,50.78-0.48c6.08-0.02,11.06-0.99,14.3-3.91c7.52-6.79,10.51-7.51,25.7-6.3
			c7.55,0.6,12-0.65,12.8-4.52c3.27-15.69,8.5-31.29,6.93-47.18c-1-10.05-10.33-13-27.93-8.2c-2.53,0.69-5.63,1.2-7.32,2.25
			c-10.68,6.62-25.4,5.63-39.62,5.34c-19.85-0.4-30.85,7.41-45.31,11.97c-1.43,0.45-1.41,2.33-1.44,3.56
			C876.17,548.67,876.24,555.49,876.24,562.31z"/>
		<path class="st0" d="M646.1,617.14c20.02-0.57,37.11,3.85,55.61,4.26c24.86,0.55,49.58,2.01,74.14,4.05
			c3.18,0.26,6.42,0.55,9.42,1.12c3.07,0.58,6.04,1.6,5.49,3.53c-0.46,1.63-3.33,2.29-6.27,2.56c-5.09,0.46-9.57,1.4-13.44,3.19
			c-4.51,2.09-10.01,2.04-15.22,0.89c-23.73-5.24-49.72-5.42-74.53-8.25c-12.57-1.43-25.73-1.57-38.62-2.32
			c-2.13-0.12-4.37-0.23-6.32-0.63c-4.52-0.93-8.77-2.4-8.34-5.05c0.5-3.05,6.05-3.12,10.73-3.32
			C641.63,617.04,644.53,617.14,646.1,617.14z"/>
		<path class="st0" d="M691.84,605.26c23.07,1.62,46.15,2.03,69.25,1.65c14.12-0.23,26.61,3.01,39.85,4.65
			c3.14,0.39,6.22,0.91,9.4,1.17c3.69,0.31,8.61-0.77,10.33,1.73c1.53,2.22-2.11,3.63-5.03,4.96c-3.6,1.65-7.87,2.13-11.78,0.54
			c-5.54-2.25-12.39-2.78-18.64-4.12c-27.67-5.93-57.04-2.76-85.54-3.96c-26.19-1.1-52.64-0.59-78.98-0.81
			c-2.87-0.02-5.8-0.07-8.58-0.37c-2.45-0.27-4.98-0.89-4.98-2.43c0-1.47,2.34-2.31,4.75-2.6c3.09-0.37,6.39-0.39,9.61-0.4
			C644.95,605.25,668.4,605.26,691.84,605.26z"/>
		<path class="st0" d="M726.7,350.09c-14.39,0.43-24.64-3.29-36.26-4.4c-2.19-0.21-4.12-1.03-3.47-2.31c0.64-1.24,3.1-1.5,5.27-1.36
			c4.26,0.27,8.54,0.6,12.7,1.12c10.24,1.29,16.43-0.29,20.63-5.12c9.25-10.62,19.18-21.01,31.52-30.94
			c8.01-6.43,12.2-14.07,22.2-20.1c3.13-1.89,5.97-3.75,11.6-2.68c6.16,1.17,4.79,3.73,3.82,5.95c-3.77,8.63-4.03,17.46-6.18,26.18
			c-0.45,1.84-0.99,3.76,3.76,4.39c4.02,0.53,7.29-0.4,9.01-2.15c4.72-4.82,10.19-9.56,13.31-14.65c2.92-4.76,8.63-8.65,12.77-13.01
			c2.29-2.41,7.21-4.07,12.5-2.57c5.58,1.58,3.92,4.3,1.3,6.64c-3.46,3.09-8.45,5.89-11.72,8.79c-7.16,6.34-11.14,13.59-15.94,20.55
			c-0.96,1.39-0.55,3.48,4.03,3.67c3.41,0.13,5.22-1.21,5.9-2.66c3.97-8.42,14.9-15.41,19.52-23.68c1.75-3.14,5.9-4.44,12.07-4.1
			c12.55,0.69,25.01,1.64,35.71,5.36c2.27,0.79,5.06,1.82,3.35,3.52c-1.33,1.32-4.21,1.23-6.74,1.11
			c-5.04-0.23-10.18-0.49-14.54-1.88c-11.07-3.5-17.85-0.02-23.43,3.86c-5.16,3.59-6.43,7.62,1.17,11.15
			c2.53,1.17,4.27,2.51,2.71,4.28c-1.56,1.78-4.8,1.77-8.16,1.96c-11.86,0.66-19.61,3.66-22.99,9.63c-3.4,5.98-1.92,10.96,8.46,14.9
			c2.67,1.02,7.52,2.06,4.9,4.1c-3.02,2.35-7.94,1.17-11.5-0.04c-4.78-1.62-9.62-3.09-14.87-4.32c-8.19-1.92-6.42-5.48-5.01-8.9
			c0.88-2.13,5.08-4.77-0.7-6.25c-5.44-1.39-9.36,0.72-12.29,2.95c-4.04,3.09-10.04,3.53-16.18,2.34c-6.22-1.21-6.52-4.05-5.02-6.86
			c3.41-6.41,1.29-13.33,7.24-19.51c1.14-1.18,1.26-2.46-0.83-3.5c-2.41-1.2-5.25-0.94-8.08-0.48c-3.2,0.53-6.06,1.43-7.52,2.92
			c-9.65,9.76-19.17,19.56-28.59,29.38c-0.7,0.73-1.08,1.99-0.3,2.56C739.45,351.61,729.76,349.89,726.7,350.09z"/>
		<path class="st0" d="M915.84,309.42c19.05-0.54,33.66,4.36,48.1,9.49c2.33,0.83,4.61,1.71,7.04,2.46
			c20.35,6.3,27.08,17.06,13.74,26.73c-13.26,9.61-23.73,20.36-42.66,27.96c-7.22,2.9-15.46,4.58-23.61,6.25
			c-7.88,1.61-14.14-1.38-14.45-6.15c-0.37-5.67,4.55-10.85,10.57-15.03c11.46-7.95,18.47-16.92,27.21-25.49
			c3.12-3.06,6.69-5.93,10.2-8.85c5.64-4.69,2.87-7.78-7.68-9.16c-3.14-0.41-6.5-0.56-9.42-1.21c-14.23-3.18-24.07-0.15-32.53,5.35
			c-7.88,5.12-7.8,7.96,0.99,12.68c2.44,1.31,5.94,2.5,4.01,4.55c-1.85,1.98-6.07,1.55-9.6,1.69c-7.71,0.31-16.99-0.63-20.03,4.38
			c-3.7,6.08-15.32,12.3-0.05,18.5c2.02,0.82,5.03,1.91,2.67,3.6c-1.91,1.35-5.12,1.36-7.92,1.04c-8.56-1-16.28-2.96-22.88-5.83
			c-3.23-1.41-5.23-3.71-1-5.07c6.33-2.04,7.85-5.36,11.56-8.12c16.02-11.93,28.04-24.91,41.4-37.53
			C904.96,308.39,910.9,309.79,915.84,309.42z M980.12,337.76c-0.66-3.8-1.09-7.84-9.61-8.31c-7.42-0.4-13.97,1.59-16.55,5.59
			c-1.88,2.91-4.32,5.61-7.8,8.21c-7.74,5.78-15.33,11.66-21.61,17.85c-3.71,3.65-9.49,8.77-1.94,11.93
			c8.63,3.61,15.93-0.98,21.63-4.03c10.73-5.74,18.21-12.7,27.22-19.08C977.05,345.96,978.4,341.8,980.12,337.76z"/>
		<path class="st0" d="M1113.45,440.97c-7.6-0.2-15.09-0.78-22.32-1.97c-5.86-0.96-7.49-3.16-6.23-5.99
			c1.37-3.09,5.51-4.02,11.35-3.39c2.46,0.26,4.92,0.6,7.26,1.07c6.74,1.35,10.45,0.23,13.47-3.06
			c10.19-11.11,23.88-21.21,37.04-31.5c13.31-10.41,24.25-21.61,29.09-33.9c1.64-4.17-3.15-7.13-10.69-9.04
			c-6.42-1.63-12.7-3.39-18.9-5.22c-3.31-0.98-5.47-2.53-4.31-4.52c1.27-2.18,4.86-2.98,9.22-3.02c5.95-0.06,11.41,0.9,16.57,2.22
			c7.04,1.79,13.98,3.67,21.1,5.4c10.79,2.63,11.48,7.97,8.2,12.65c-7.42,10.58-13.83,21.4-26.27,31.01
			c-12.25,9.46-23.56,19.22-35.17,28.89c-3.03,2.52-3.29,5.47-4.37,8.29C1135.99,435.42,1124.16,441.05,1113.45,440.97z"/>
		<path class="st0" d="M1071.24,411.05c-6.84,0.55-13.69,0.62-20.46-0.1c-9.34-0.99-13.65-4.79-10.55-9.3
			c1.75-2.55,4.15-4.9,7.71-7.03c12.54-7.5,20.54-16.23,28.04-25.19c6.74-8.05,16.69-15.36,24.05-23.32
			c2.77-2.99,8.81-3.82,15.66-1.83c18.77,5.46,25.23,14.68,30.69,24.25c0.48,0.84,0.77,1.85,0.31,2.67
			c-8.14,14.48-14.29,29.57-44.74,37.44C1092.26,411.13,1081.5,410.34,1071.24,411.05z M1081.22,406.38
			c4.97,0.12,10.86-0.03,16.25-1.99c23.58-8.59,40.85-28.86,30.73-43.49c-1.99-2.87-5.53-5-9.84-6.91c-4.87-2.15-9.9-2.1-14.04,0.51
			c-3.11,1.95-6.31,3.96-8.42,6.19c-9.9,10.45-18.87,21.1-30.03,31.26C1056.33,400.62,1062.1,406.35,1081.22,406.38z"/>
		<path class="st0" d="M664.29,302.72c0.63-5.89,1.45-10.55,1.51-15.21c0.03-2.55-1.23-5.35-7.42-5.84
			c-7.08-0.55-7.26,2.58-9.09,4.88c-6.62,8.31-13.48,16.56-20.28,24.84c-1.28,1.55-3.02,3.23-6.97,2.58
			c-3.92-0.64-4.07-2.65-2.48-4.1c6-5.48,9.91-11.38,14.73-17.09c5.46-6.48,12.94-12.53,19.54-18.77c0.5-0.48,0.79-1.09,1.56-1.4
			c4.56-1.85,5.9-6.19,13.17-5.64c7.9,0.6,7.93,4.7,9.41,7.74c3.09,6.37,4.35,12.7-1.67,18.98c-2.88,3.01-1.27,5.97,3.95,8.3
			c5.58,2.49,10.73,2.23,14.29-0.96c7.84-7.03,15.38-14.14,22.64-21.32c2.29-2.27,4.48-4.53,7.95-6.37c2.24-1.19,4.22-3.7,8.36-2.27
			c3.67,1.27,3.26,3.77,0.49,5.35c-5.38,3.06-7.95,6.76-11.47,10.29c-8.43,8.47-17.58,16.77-26.18,25.2
			c-3.56,3.49-3.53,7.7-8.95,10.88c-6.21,3.64-10.62,3.61-16.04-0.36C662.55,315.97,666.84,308.45,664.29,302.72z"/>
		<path class="st0" d="M984.17,381.74c-0.24,7.62,7.8,11.66,24.02,13.97c5.46,0.78,11.62,0.7,15.96,2.95
			c1.78,0.92,3.41,1.98,2.1,3.35c-1.15,1.2-3.69,1.27-5.64,0.9c-15.51-2.92-33.63-2.03-46.7-8.68c-8.37-4.26-10.91-8.86-4.98-13.97
			c12.17-10.49,22.73-21.34,31.74-32.64c3.82-4.79,8.78-9.27,10.41-14.48c0.93-2.99,5.27-3.57,10.64-2.51
			c16.1,3.19,32.34,6.05,49.89,6.56c3.1,0.09,7.29,0.49,6.56,2.68c-0.68,2.04-4.89,1.92-7.99,1.8c-12.93-0.49-25.83-1.09-38.74-1.72
			c-7.83-0.38-19.5,4.17-21.79,9.23c-2.02,4.48,1.96,7.58,11.14,9c4.2,0.65,10.6,1.18,7.93,4.43c-2.2,2.68-7.29,1.27-11.39,0.7
			c-15.17-2.11-25.83,1.14-30.22,9.52C985.31,376.27,984.76,379.88,984.17,381.74z"/>
		<path class="st0" d="M467.53,273.68c0.52-4.49,1.9-9.34-8.93-11.42c-9.58-1.84-19.63,0.86-25.7,6.08
			c-2.49,2.14-5.93,4.01-8.85,6.04c-1.88,1.3-3.62,3.19-7.44,1.89c-3.26-1.11-2.07-2.93-0.19-4.35c7.66-5.8,15.14-11.66,23.27-17.29
			c6.06-4.19,12.6-8.26,19.7-12.02c5.16-2.73,10.24-6.35,20.06-3.95c9.86,2.4,12.05,6.06,9.34,11.12
			c-2.13,3.98-3.67,7.95-8.13,11.58c-4.73,3.85-2.82,8.38-3.39,12.64c-0.19,1.43-0.12,2.87-0.44,4.29
			c-0.38,1.66-1.39,3.48-5.42,3.39c-4.32-0.1-4.26-2.11-4.32-3.71C467,276.54,467.36,275.11,467.53,273.68z M466.67,256.37
			c5.82-0.29,10.74-1.17,10.42-4.71c-0.2-2.24-1.69-4.83-7.23-4.03c-5.33,0.77-12.95,1.29-13.15,5.18
			C456.56,255.76,461.64,256.33,466.67,256.37z"/>
		<path class="st0" d="M301.71,241.48c-2.19,6.12,7.26,9.48,17,12.84c3,1.03,8.23,1.92,5.33,4.43c-2.34,2.03-7.1,1.44-10.89,1
			c-21.15-2.43-33.23-17.51-22.33-26.53c5.61-4.64,6.66-10.53,15.32-14.49c11.66-5.33,20.47-12.87,40.14-11.53
			c7.85,0.54,13.25,2.54,18.11,5.28c2.06,1.16,3.1,2.48,1.25,3.92c-1.58,1.22-4.22,1.37-6.75,1.06c-2.78-0.34-5.97-0.59-8.05-1.45
			c-9.49-3.88-17.9-2.03-24.99,1.42C312.82,223.78,301.71,230.81,301.71,241.48z"/>
		<path class="st0" d="M631.52,271.5c0.88,8.13-9.58,15.32-18.57,22.69c-2.73,2.24-6.36,4.16-8.76,6.64
			c-3.13,3.23-9.11,5.21-16.75,4.55c-7.21-0.62-11.62-3.15-11.9-6.73c-0.53-6.6,0.16-13.07,6.66-19.23
			c5.48-5.19,9.29-10.79,17.68-15.17c6.78-3.55,14.1-3.47,22.69-1.94C630.72,263.76,632.42,266.62,631.52,271.5z M583.8,290.43
			c0.28,3.61-0.13,6.31,5.31,7.72c5.22,1.35,9.47-0.31,12.52-1.93c11.18-5.97,19.4-12.75,18.51-21.29c-0.45-4.34-8.91-6.1-15.6-2.92
			C593.46,277.27,585.72,283.7,583.8,290.43z"/>
		<path class="st0" d="M510.97,240.44c16.48-0.25,28.31,5.38,42.98,6.43c0.91,0.06,2.21,1.06,2.17,1.61
			c-0.07,1.02-2.01,1.47-3.87,1.48c-23.46,0.07-26.68,9.84-32.57,17.63c-4.76,6.3-12.4,12.13-14,19.02
			c-0.15,0.64-1.27,1.32-2.3,1.79c-2.95,1.35-5.44,4.35-10.2,2.5c-4.42-1.72-0.21-3.83,1.97-5.64c7.03-5.82,13.19-11.83,15.5-18.63
			c0.9-2.66,2.45-5.2,5.19-7.59c7.27-6.34,5.74-8.69-7.25-12.5c-3.38-0.99-9.72-1.14-7.83-4.16
			C502.4,239.75,507.9,240.6,510.97,240.44z"/>
		<path class="st0" d="M410.48,227.39c9.01,1.07,18.61,0.87,27.34,2.8c2.86,0.63,6.69,1.07,5.5,3.29c-0.89,1.67-3.83,2.17-6.87,1.89
			c-9.05-0.85-12.58,1.71-13.88,5.51c-1.69,4.94-9.68,8.36-12.37,13.05c-0.49,0.85-1.8,1.73-3.85,1.53
			c-2.8-0.27-2.58-1.57-2.53-2.61c0.11-2.41,2.57-4.43,4.66-6.51c6.32-6.28,5.46-8.9-4.47-14.03c-2.06-1.06-4.31-2.2-2.49-3.73
			C403.54,226.9,407.26,227.55,410.48,227.39z"/>
		<path class="st0" d="M393.37,226.37c-0.21,1.85-2.49,2.47-4.86,2.87c-5.03,0.85-7.54,2.78-8.51,5.13
			c-3.42,8.25-14.53,15.12-17.02,23.54c-0.36,1.2-1.73,2.34-2.78,3.48c-1.63,1.77-3.39,4.22-8.24,2.92
			c-4.35-1.17-2.8-3.79-0.41-5.22c6.28-3.75,7.12-8.43,10.62-12.63c4.61-5.52,7.2-11.17,9.91-16.89c2.08-4.39,10.41-6.22,18.25-4.24
			C391.53,225.62,392.55,226.08,393.37,226.37z"/>
		<path class="st0" d="M665.56,340.84c-1.36-0.11-3.73,0.06-4.8-0.45c-10.1-4.82-24.89-4.09-35.97-7.66
			c-5.96-1.92-12.86-2.19-19.56-2.74c-7.12-0.59-12.78-2.27-17.24-5.02c-1.32-0.81-3.19-1.66-1.84-2.83
			c1.23-1.07,3.6-1.06,5.76-0.97c1.42,0.05,3.08,0.07,4.17,0.44c21.77,7.41,47.85,9.76,71.33,15.16c2.41,0.55,6.19,0.95,5.1,2.84
			C671.69,341.08,668.42,340.69,665.56,340.84z"/>
		<path class="st0" d="M542.43,292.94c0.66-1.03,1.08-2.72,2.69-4.06c9.77-8.17,17.42-16.77,22.51-25.95
			c1.13-2.04,3.1-4.69,8.62-3.55c5.14,1.06,1.64,3.4,0.7,5.18c-4.5,8.48-13.09,16.03-21.49,23.64c-2.02,1.83-2.59,4.07-3.67,6.13
			c-0.75,1.43-1.35,3.04-5.12,2.86C542.23,296.98,542.47,295.13,542.43,292.94z"/>
		<path class="st0" d="M848.31,377.25c-2.9,2.02-7.36,1.67-10.32,0.58c-5.82-2.15-12.22-3.77-18.18-5.74
			c-4.5-1.49-8.5-3.21-14.02-3.82c-2.47-0.27-6.5-0.81-4.74-2.76c1.14-1.26,5.11-1.25,6.77-0.51c6.91,3.07,16.15,3.71,23.63,5.98
			c4.51,1.37,8.46,3.23,13.61,4.16C846.77,375.44,848.11,376.07,848.31,377.25z"/>
		<path class="st0" d="M909.84,391.23c13.45-0.04,21.38,4.68,32.01,6.09c1.57,0.21,2.7,1.23,1.79,2.23
			c-0.88,0.97-2.87,1.2-4.54,0.89c-11.6-2.16-23.15-4.39-34.66-6.67c-1.31-0.26-2.1-1.22-1.02-1.8
			C905.62,390.78,908.75,391.26,909.84,391.23z"/>
		<path class="st0" d="M1000.05,415.19c6.98-2.86,12.16-2.67,15.74-1.49c6.32,2.07,12.48,4.04,20.01,4.82
			c2.19,0.22,4.1,1.03,3.56,2.28c-0.65,1.51-3.33,1.77-5.94,1.61c-1.73-0.11-3.93-0.29-4.97-0.86
			C1021.58,417.71,1012.71,415.83,1000.05,415.19z"/>
		<path class="st0" d="M506.35,306.44c15.18-3.43,22.01,4.62,33.69,6C526.52,313.59,518.66,306.96,506.35,306.44z"/>
		<path class="st0" d="M390.8,265.48c1.62-2.13,0.63-5.52,7.25-6.09c3.81-0.33,3.67,1.9,3.14,3.18c-1.01,2.42,0.04,5.77-6.83,6.33
			C390.73,269.2,390.88,267.14,390.8,265.48z"/>
		<path class="st0" d="M333.76,276.65c-4.23-0.92-10.93,0.42-12.58-2.65c-1.03-1.91,3.5-1.96,6.07-1.67
			c4.46,0.5,10.91-0.38,12.21,2.84C340.11,276.78,336.19,276.5,333.76,276.65z"/>
		<path class="st0" d="M489.15,303.58c-3.7-1.21-11.21,0.28-11.92-3.09c-0.39-1.83,4.55-1.1,7.09-0.94
			c4.15,0.26,9.56,0.18,10.64,2.72C495.74,304.13,491.8,303.59,489.15,303.58z"/>
		<path class="st0" d="M559.66,317.1c4.76-1.59,8.67-1.47,12.41-0.23c1.23,0.41,1.48,1.38-0.13,1.72
			C567.72,319.5,563.82,319.16,559.66,317.1z"/>
		<path class="st0" d="M982.23,407.57c2.97,0.49,7.08,0.11,6.63,2.09c-0.35,1.56-3.88,1.18-6.15,1.03c-2.6-0.17-6.53-0.14-6.16-2
			C976.89,407.01,980.6,408,982.23,407.57z"/>
		<path class="st0" d="M787.34,360.46c-0.24,1.38-1.92,1.61-3.72,1.55c-3.14-0.1-6.67-0.19-7.66-2.04
			c-0.57-1.08,1.44-1.41,3.38-1.28C782.44,358.9,785.56,359.12,787.34,360.46z"/>
	</g>
</g>
</svg>
