<?xml version="1.0" encoding="utf-8"?>
<!-- Generator: Adobe Illustrator 28.1.0, SVG Export Plug-In . SVG Version: 6.00 Build 0)  -->
<svg version="1.1" id="Layer_1" xmlns="http://www.w3.org/2000/svg" xmlns:xlink="http://www.w3.org/1999/xlink" x="0px" y="0px"
	 viewBox="0 0 50 50" style="enable-background:new 0 0 50 50;" xml:space="preserve">
<style type="text/css">
	.st0{fill:#4951A2;}
	.st1{fill:#F4772B;}
</style>
<g>
	<path class="st0" d="M42.69,42.79H7.31C3.27,42.79,0,39.52,0,35.48V15.13c0-4.04,3.27-7.31,7.31-7.31h35.37
		c4.04,0,7.31,3.27,7.31,7.31v20.34C50,39.52,46.73,42.79,42.69,42.79z"/>
	<g>
		<g>
			<g>
				<path class="st1" d="M37,11.1c3.03,0,5.46,0.55,7.21,1.83c1.66,1.24,2.82,3.24,2.82,6.06c0,6.23-5.33,8.74-9.38,8.74
					c-0.47,0-0.9-0.04-1.16-0.09l-2.94-0.76v6.66c0,3.58,0.3,3.67,4.22,4.1v1.19H25.99v-1.19c3.67-0.38,3.84-0.64,3.84-4.19V16.51
					c0-3.79-0.47-3.88-3.84-4.22V11.1H37z M33.54,25.39c0.52,0.26,1.66,0.55,3.11,0.55c2.86,0,6.4-1.45,6.4-6.83
					c0-4.69-3.07-6.57-6.66-6.57c-1.24,0-2.13,0.21-2.39,0.52c-0.34,0.3-0.47,0.81-0.47,1.96L33.54,25.39L33.54,25.39z"/>
			</g>
		</g>
		<g>
			<g>
				<path class="st1" d="M18.96,38.83v-1.19c2.65-0.3,2.9-0.73,2.13-2.13c-0.98-1.66-2.86-4.86-5.5-9.05
					c-2.01,3.11-3.88,6.06-5.29,8.58c-0.98,1.8-0.64,2.26,2.22,2.6v1.19H2.58v-1.19c2.56-0.26,3.75-0.9,4.99-2.47
					c1.58-2.04,3.29-4.52,6.99-10.24c-2.22-3.58-4.14-6.61-5.55-8.87c-1.83-2.86-2.39-3.41-5.5-3.75V11.1h10.62v1.19
					c-2.65,0.26-2.73,0.73-2.04,1.88c1.37,2.39,2.94,4.86,4.82,7.77c1.66-2.56,3.2-4.99,4.31-6.95c1.02-1.83,0.73-2.35-2.09-2.68
					v-1.2h9.73v1.19c-3.2,0.43-3.96,0.76-5.8,3.37c-1.4,2.01-2.26,3.24-5.21,7.68c2.3,3.63,4.48,7.16,6.49,10.28
					c2.04,3.24,2.9,3.71,5.97,4.01v1.19L18.96,38.83L18.96,38.83z"/>
			</g>
		</g>
	</g>
</g>
</svg>
